<svg width="20" height="20" viewBox="0 0 20 20" fill="none" xmlns="http://www.w3.org/2000/svg">
<g id="Social icon">
<path id="path4" d="M17.3689 14.2874C17.0917 14.9279 16.7635 15.5175 16.3832 16.0595C15.865 16.7985 15.4406 17.31 15.1135 17.594C14.6066 18.0603 14.0634 18.2991 13.4817 18.3126C13.0641 18.3126 12.5605 18.1938 11.9743 17.9528C11.3862 17.7129 10.8457 17.594 10.3516 17.594C9.83325 17.594 9.27739 17.7129 8.68282 17.9528C8.08734 18.1938 7.60764 18.3194 7.24087 18.3319C6.68308 18.3556 6.1271 18.1101 5.57213 17.594C5.21793 17.2851 4.77489 16.7555 4.24414 16.0052C3.6747 15.204 3.20653 14.2749 2.83976 13.2157C2.44697 12.0716 2.25006 10.9637 2.25006 9.89111C2.25006 8.66247 2.51555 7.60279 3.04731 6.71479C3.46523 6.00151 4.02121 5.43885 4.71706 5.02579C5.41291 4.61274 6.16478 4.40225 6.97448 4.38879C7.41752 4.38879 7.99851 4.52583 8.7205 4.79516C9.44046 5.0654 9.90274 5.20245 10.1054 5.20245C10.2569 5.20245 10.7705 5.0422 11.6411 4.72274C12.4643 4.42647 13.1592 4.3038 13.7284 4.35212C15.2708 4.4766 16.4296 5.08464 17.2003 6.18008C15.8208 7.01592 15.1384 8.18661 15.152 9.68843C15.1645 10.8582 15.5888 11.8317 16.4229 12.6046C16.8008 12.9633 17.2229 13.2406 17.6926 13.4375C17.5907 13.7328 17.4832 14.0158 17.3689 14.2874ZM13.8314 0.366893C13.8314 1.28377 13.4964 2.13985 12.8287 2.93224C12.023 3.87422 11.0484 4.41855 9.99157 4.33266C9.9781 4.22266 9.9703 4.10689 9.9703 3.98524C9.9703 3.10504 10.3535 2.16305 11.0339 1.39285C11.3737 1.00288 11.8057 0.678629 12.3297 0.419967C12.8525 0.165164 13.347 0.0242526 13.8121 0.00012207C13.8257 0.122694 13.8314 0.245274 13.8314 0.366881V0.366893Z" fill="#98A2B3"/>
</g>
</svg>
