<svg width="82" height="16" viewBox="0 0 82 16" fill="none" xmlns="http://www.w3.org/2000/svg">
<g clip-path="url(#clip0_3692_15983)">
<path d="M13.8238 0C14.3916 0.941401 14.6784 2.02539 14.6505 3.1243C14.6505 7.00748 11.3264 12.0666 8.63196 15.6196H2.47046L0.00585938 0.859277L5.39669 0.347572L6.70237 10.8598C7.92115 8.85927 9.42387 5.73498 9.42387 3.60319C9.42387 2.44461 9.23072 1.6529 8.91009 0.990582L13.8238 0Z" fill="white"/>
<path d="M20.316 9.32229C20.316 11.0602 21.2817 11.7341 22.5662 11.7341C23.9549 11.7341 25.2935 11.3884 27.0299 10.5118L26.3847 14.9414C25.1621 15.5361 23.2596 15.9339 21.4073 15.9339C16.7292 15.9339 15.043 13.0896 15.043 9.53662C15.043 4.94092 17.7702 0.0478516 23.3928 0.0478516C26.4833 0.0478516 28.2216 1.78571 28.2216 4.19749C28.2197 8.09805 23.2094 9.28367 20.316 9.32229ZM20.4319 6.49535C21.4246 6.49535 23.9221 6.0493 23.9221 4.62811C23.9221 3.95034 23.4411 3.60276 22.8636 3.60276C21.8882 3.60276 20.5806 4.79224 20.4338 6.49535H20.4319Z" fill="white"/>
<path d="M43.1955 3.46989C43.1825 4.11642 43.1277 4.76142 43.0313 5.40086L41.4108 15.635H36.1532L37.6231 6.26399C37.68 5.91356 37.718 5.56034 37.7371 5.20583C37.7371 4.52806 37.3083 4.34655 36.7964 4.34655C36.1185 4.34655 35.4444 4.6613 34.977 4.89301L33.3062 15.6369H28.0332L30.4476 0.312756H35.0098L35.0755 1.53699C36.1513 0.826393 37.5729 0.0655928 39.5894 0.0655928C42.2587 0.0482141 43.1955 1.42113 43.1955 3.46989Z" fill="white"/>
<path d="M58.2085 1.73552C59.7131 0.659966 61.1347 0.0478516 63.1029 0.0478516C65.7974 0.0478516 66.7399 1.42077 66.7399 3.45408C66.7265 4.10065 66.671 4.74567 66.5738 5.38504L64.9533 15.6192H59.6958L61.2004 6.0493C61.2416 5.79736 61.2693 5.54339 61.2835 5.2885C61.2835 4.52769 60.8527 4.34618 60.3409 4.34618C59.7105 4.3813 59.0981 4.56882 58.5562 4.89265L56.8854 15.6192H51.6279L53.1325 6.0493C53.1737 5.79736 53.2015 5.54339 53.2156 5.2885C53.2156 4.52769 52.7849 4.34618 52.273 4.34618C51.595 4.34618 50.9209 4.66093 50.4535 4.89265L48.7847 15.6366H43.5098L45.9299 0.329771H50.4439L50.5926 1.60228C51.6491 0.841477 53.0553 0.057504 54.9559 0.057504C56.588 0.0478492 57.6793 0.760377 58.2085 1.73552Z" fill="white"/>
<path d="M67.5176 9.40359C67.5176 4.57617 70.0788 0.0654297 75.9486 0.0654297C80.3795 0.0654297 82 2.67803 82 6.28122C82 11.0565 79.4697 15.9998 73.4531 15.9998C68.9874 15.9824 67.5176 13.057 67.5176 9.40359ZM76.6111 6.19819C76.6111 4.94113 76.2962 4.09922 75.3537 4.09922C73.287 4.09922 72.8563 7.76806 72.8563 9.63531C72.8563 11.0565 73.2541 11.9332 74.1967 11.9332C76.1475 11.9332 76.6111 8.06543 76.6111 6.19432V6.19819Z" fill="white"/>
</g>
<defs>
<clipPath id="clip0_3692_15983">
<rect width="82" height="16" fill="white"/>
</clipPath>
</defs>
</svg>
